<svg version="1.0" xmlns="http://www.w3.org/2000/svg" width="1962.667" height="1962.667" viewBox="0 0 1472 1472"><path d="M980.7 319.7c-.4.3-3.7.7-7.4.9-8.7.5-11.1.9-11.9 1.7-.4.4-1.5.7-2.5.7s-3 .5-4.6 1.2c-1.5.6-3.1 1.2-3.5 1.3-.5.2-1.1.4-1.5.5-.5.1-1.1.2-1.5.1-.5 0-.8.3-.8.9 0 .5-.4.9-.8.7-1.3-.4-13.1 7.3-16.9 10.9-1.9 1.9-3.9 3.4-4.4 3.4-.5 0-.9.3-.9.7 0 .5-2 3-4.5 5.7-7.6 8.5-14.4 24.4-16.2 37.6-1.6 11.8.2 32.9 3.4 41 .3.8.5 1.8.5 2.2-.1.5.3.8.8.8.6 0 1 .8 1 1.7 0 5 13.1 22.1 22.2 29.1 8 6 19.5 11.8 26.1 13.1.4 0 .8.1 1 .2.1.1 3.4.7 7.4 1.3 7.7 1.3 23.6 1.3 29.3.1 1.9-.4 4.4-.9 5.5-1 1.1-.1 2.7-.4 3.5-.8.8-.3 4.1-1.5 7.2-2.6 6.1-2.2 9.4-3.8 11.6-5.9.7-.6 1.7-1.2 2.2-1.2 1.4 0 18-15.7 18-17 0-.4 1.1-2 2.4-3.5 2.2-2.5 8.5-14.3 9.1-17 .1-.5.5-1.7.8-2.5 3.2-7.4 4.6-31 2.5-40.1-.5-2.4-1.1-5.1-1.3-5.9-.9-4.3-4.8-13.8-7-17.2-1.4-2-2.5-4.1-2.5-4.4 0-1.1-7.1-9.5-12.5-14.8-6.6-6.4-22-16.2-27-17.2-.5-.1-3.5-.9-6.5-1.8-3.1-.9-8.4-1.8-11.7-2-3.4-.2-6.6-.6-7.1-1-.5-.3-1.2-.3-1.5.1zM409.9 333.8c-2.1.3-3.2 1.7-6.9 9.5-2.3 5.1-4.4 9.8-4.6 10.6-.1.8-.6 1.7-1.1 2-.4.3-1 1.5-1.1 2.6-.2 1.1-.8 2.1-1.3 2.3-.5.2-.9.7-.9 1.2 0 .7-4 9.7-11 24.5-1.5 3.3-4.5 9.6-6.5 14-2.1 4.4-5.1 10.9-6.8 14.5-1.7 3.6-3.1 6.7-3.2 7-.1.3-1.9 4.1-3.9 8.5-2.1 4.4-5.2 10.9-6.8 14.5-1.7 3.6-4.4 9.2-6 12.5-1.6 3.3-2.9 6.1-2.9 6.2 0 .2-1.7 4-3.8 8.5-2.1 4.6-5.5 11.7-7.4 15.8-1.9 4.1-4.9 10.5-6.6 14.2-1.7 3.6-3.1 7.1-3.1 7.7 0 .6-.4 1.1-1 1.1-.5 0-1 .9-1 1.9 0 1.1-.7 2.6-1.5 3.5-.9.8-1.6 1.9-1.7 2.3-.2 2-3.4 9.3-14.9 33-2.7 5.7-4.9 10.5-4.9 10.8 0 .4-1.8 4.2-4 8.6-2.1 4.3-3.7 7.9-3.4 7.9.3 0-.3 1.2-1.4 2.7-1.1 1.6-2.1 3.2-2.2 3.8-.1.5-1.2 3.2-2.5 6-7 15.3-8.6 18.8-12.7 27.5-2.5 5.2-5.7 12-7.1 15-1.4 3-4.4 9.5-6.7 14.5-2.3 4.9-5.6 11.9-7.2 15.4-1.6 3.5-4.5 9.8-6.5 14-2.1 4.2-3.8 8.3-3.9 9.1-.2.8-.8 1.6-1.3 1.8-.6.2-1.1 1-1.1 1.8s-1.9 5.3-4.3 10.1c-2.4 4.9-4.4 9.1-4.5 9.6-.1.4-.8 2-1.6 3.5-.7 1.5-3.6 7.6-6.4 13.7-2.8 6-7.5 16.2-10.5 22.5-3 6.3-6.7 14.2-8.2 17.5-1.5 3.3-4 8.7-5.5 12-8.1 17.2-12 25.8-12 26.6 0 .5-.4.9-1 .9-.5 0-1 .7-1 1.5s-.4 2.3-.9 3.3c-.5.9-1.6 3.2-2.3 4.9-.7 1.8-1.7 3.3-2.2 3.3-.4 0-.6.7-.2 1.5.3.8.1 1.5-.4 1.5-.6 0-1 .4-1 .9 0 .6-2.5 6.3-5.6 12.8-3 6.5-5.6 12.2-5.7 12.8-.1.5-.5 1.2-.8 1.5-1 .8-8.9 18.2-8.9 19.6 0 .7-.3 1.4-.8 1.6-.4.1-2.3 3.7-4.1 7.8-1.9 4.1-5 10.9-7 15-1.9 4.1-3.4 7.8-3.3 8.2.1.5-.3.8-.8.8s-.9.3-.8.7c.1.5-1.9 5.3-4.6 10.8-2.7 5.5-4.9 10.6-4.9 11.2 0 .7-.4 1.3-.9 1.3-.4 0-.7.3-.6.7.1.5-1.3 3.7-3 7.2-1.8 3.6-3.2 7-3.2 7.8 0 .7-.4 1.3-1 1.3-.5 0-1 .9-1 2s-.4 2-.9 2-1.2 1.2-1.5 2.6c-.4 1.4-2.9 7-5.5 12.4-2.7 5.5-4.6 10.2-4.3 10.5.3.3 0 .5-.6.5-.7 0-1.2.5-1.2 1.1 0 .6-1.8 4.9-4 9.5-2.2 4.7-4 8.9-4 9.4 0 .6-.5 1-1.2 1-.6 0-.9.3-.5.6.3.3-.5 2.7-1.8 5.2-2.1 4.3-11.2 23.8-19.4 41.5-1.7 3.8-3.1 7.3-3.1 7.8s-.5.9-1 .9c-.6 0-.9.3-.8.7.1.5-.9 3-2.1 5.8-4.9 10.4-9.5 20.3-13.3 28.5-2.2 4.7-5.3 11.4-7 15-1.6 3.6-4.4 9.4-6.1 13-1.8 3.5-3.2 6.7-3.2 7-.2 1.9-1.8 5-2.6 5-.5 0-.9.6-.9 1.2 0 .7-1.1 3.7-2.5 6.5-2.1 4.7-2.2 5.3-.7 5.4.9 0 26.3.1 56.4.1 55 .1 57.8 0 57.8-3.2 0-.8 2.4-6.1 10-22.5 3.4-7.4 8-17.3 12.1-26.3 1.7-3.7 3.9-8.4 5-10.5 1-2.1 1.9-4.4 1.9-5.2 0-.8.4-1.5.9-1.5s1.3-1 1.6-2.3c.4-1.2 2.7-6.4 5.1-11.5 2.4-5.1 4.4-9.5 4.4-9.7 0-.2 2.5-5.7 5.6-12.2 5.7-11.8 9.6-20.4 9.9-21.3.2-1 6.8-14.5 7.2-15 .3-.3 112.9-.5 250.4-.5 240 0 249.9.1 250.5 1.8.3 1 2.9 6.8 5.9 13 2.9 6.2 6.4 13.7 7.8 16.7 4.1 9.1 8.2 17.9 14 30.2 3 6.4 5.3 11.9 4.9 12.2-.3.3 0 .6.6.6.7 0 1.2.4 1.2 1 0 .9 2.8 7.1 11.8 26 1.9 4.1 3.6 7.7 3.7 8 .2.8 3 6.8 7.1 15.5 2.1 4.4 3.8 8.2 3.9 8.5.3 2 3.9 8 4.9 8.1.6 0 26.2.2 56.8.2 55.4.2 55.8.2 55.1-1.8-.5-1.9-2.9-7-11.6-25.5-1.9-4.1-5.1-11.1-7.2-15.5-2-4.4-4.9-10.7-6.5-14-1.5-3.3-4.2-9-5.8-12.6-4.5-9.6-10.3-22-15.6-33.2-2.5-5.5-4.6-10.3-4.6-10.8s-.5-.9-1.2-.9c-.6 0-.9-.3-.5-.6.3-.4-.4-2.5-1.5-4.8-1.2-2.2-2.3-4.3-2.3-4.6-.3-1-3.4-7.6-9.9-21.4-3.6-7.6-6.6-13.9-6.6-14.1 0-.1-2.4-5.4-5.4-11.6-2.9-6.3-11.3-24.2-18.6-39.9-16.1-34.6-18.8-40.5-23.1-49.5-1.8-3.9-3.4-7.2-3.5-7.5-.1-.6-5.5-12.3-9.7-21-1.7-3.6-3.2-6.7-3.2-7-.1-.7-8.2-17.8-11-23.3-1.4-2.6-2.2-4.7-1.8-4.7.3 0-.2-.9-1.3-2.1-1-1.2-1.7-2.2-1.6-2.3.2 0-1.3-3.7-3.3-8.1-5.1-11.2-5.8-12.9-5.7-13.8.1-.4-.2-.7-.7-.7-.5 0-1.5-1.7-2.2-3.8-.6-2-1.5-4.2-1.9-4.7-.4-.6-3-6-5.8-12-2.8-6.1-7.1-15.5-9.7-21-6.3-13.4-9.8-20.9-12.8-27.5-1.3-3-4.5-9.9-7.1-15.2-2.5-5.3-4.6-10.2-4.6-10.7 0-.6-.5-1.1-1.2-1.1-.6 0-.8-.3-.5-.6.4-.4-.2-2.3-1.3-4.3-3-5.6-10-21-10-22.1 0-.6-.4-1-1-1-.5 0-1-.6-1-1.3 0-.8-1.6-4.6-3.5-8.5-3.1-6.3-6.5-13.8-7-15.2-.1-.3-1.8-3.9-3.7-8-4.3-9-10.1-21.5-13.5-29-1.4-3-5.2-11.1-8.4-17.9-3.3-6.8-5.9-12.5-5.9-12.6 0-.2-2.9-6.4-6.5-14-3.6-7.5-6.5-13.8-6.5-14 0-.1-2.6-5.8-5.9-12.6-3.2-6.8-7-14.9-8.4-17.9-3.2-7.1-10.3-22.2-13-28-1.1-2.5-2.2-4.7-2.2-5-.1-.3-2.7-5.8-5.8-12.4-3.1-6.5-5.7-12-5.7-12.2 0-.2-1.8-4-3.9-8.4-2.2-4.4-3.7-8-3.4-8 .3 0-.1-.8-.9-1.8-.8-.9-2.7-4.6-4.2-8.1-1.6-3.5-4.8-10.5-7.2-15.7-2.4-5.1-4.4-9.7-4.4-10.2 0-.4-.6-1.4-1.2-2.1-.7-.6-1.3-1.5-1.3-1.9-.1-.4-1.2-3-2.5-5.7-1.3-2.8-2.4-5.2-2.4-5.5-.1-.3-1.5-3.4-3.3-7-1.7-3.6-4.5-9.7-6.3-13.5-1.8-3.9-4.9-10.6-7-15-2-4.4-5-10.7-6.5-14l-2.8-6h-12.8c-7.1 0-12.9.4-12.9.8 0 .5-.5.5-1.1.1-1.5-.9-30.9-1.1-30.9-.1 0 .5-.5.5-1.1.2-1.5-1-16.9-1.1-16.9-.2 0 .5-.5.5-1.1.1-1.6-.9-16.9-1.1-16.9-.1 0 .5-.4.5-1 .2-1.2-.7-7.4-1.1-11.1-.7zm54.7 131.7c2.6 6 7.2 15.9 13.1 28.2 2 4.3 3.7 8 3.8 8.3 0 .3 1.2 3 2.6 6 1.5 3 3.6 7.5 4.7 10s4.3 9.4 7.1 15.4c2.8 5.9 5.1 11.2 5.1 11.7s.4.9.8.9c.5 0 .9.6.9 1.2 0 .7 2.3 6 5 11.8 5.7 12 8.9 18.9 12.8 27.5 5.5 12.1 9.7 21.2 12.9 28 6.8 14.3 10 21.2 12.6 27 1.5 3.3 4.5 9.8 6.7 14.5 2.2 4.7 4.7 10.1 5.6 12 .8 1.9 3.5 7.8 6 13 2.4 5.2 5.5 11.7 6.7 14.5 7.6 16.5 12.9 27.9 19.1 41 1.8 3.8 3.3 7.2 3.4 7.5.1.5 1.1 2.6 8.6 18.5 1.8 3.8 3.3 7.2 3.4 7.5 0 .3 1.6 3.6 3.4 7.5 1.8 3.8 5.9 12.6 9.1 19.5 3.2 6.9 7.3 15.9 9.3 20 1.9 4.1 4.6 10 6 13 4.6 10.1 10.8 23.5 12.3 26.4.8 1.6 1.4 3.5 1.4 4.2 0 .7.4 1.4.8 1.6.4.1 2 3.2 3.6 6.8 1.6 3.6 4.8 10.7 7.2 15.9 2.4 5.1 4.4 9.5 4.4 9.6 0 .2-90.4.3-201 .3-159.6 0-201-.3-201-1.3 0-.6 1.1-3.3 2.5-5.9 1.4-2.6 2.5-5.3 2.5-6 0-.8.7-1.9 1.5-2.6.9-.7 1.3-1.5 1.1-1.8-.3-.3.1-1.7.9-3.1.8-1.4 1.9-3.7 2.5-5.1.5-1.4 1.4-3.2 1.9-4 .5-.8 1.9-3.8 3.2-6.5 1.2-2.8 3.5-7.8 5-11.2 1.6-3.4 2.9-6.6 2.9-7.2 0-.6.5-1.1 1-1.1.6 0 1-.5 1-1.1 0-.7 1.8-5 4-9.6 2.2-4.7 4-8.7 4-8.9 0-.2 2.1-4.8 4.7-10.1 2.6-5.4 4.8-10 4.8-10.3.1-.3 1.3-3 2.7-6 5.7-11.9 10.1-21.5 10.3-22 .1-.3 1.8-4 3.8-8.4 2-4.3 3.7-8 3.7-8.2 0-.1 2.2-4.9 4.9-10.6 9.4-19.8 14.2-30.3 14.4-31.3.1-.6.5-1.2.8-1.5.3-.3 3.4-6.8 6.9-14.5 3.5-7.7 8.6-18.7 11.3-24.5 2.8-5.8 5.1-10.7 5.1-11 .1-.3 1.1-2.5 2.3-5 1.2-2.5 3.2-7 4.6-10 1.4-3 4-8.7 5.8-12.5 1.8-3.9 3.3-7.3 3.3-7.7.1-.4.7-1.3 1.4-2 .6-.6 1.2-1.9 1.2-2.8 0-.9.7-2.5 1.5-3.6.8-1 1.5-2.7 1.5-3.7 0-.9.5-1.7 1-1.7.6 0 1-.4 1-.9s1.4-4 3.2-7.8c1.7-3.7 3.2-7 3.3-7.3.2-.7 3.6-8.2 8.5-18.5 2.3-5 5.1-11 6.2-13.5 1.1-2.5 3.3-7.1 4.9-10.4 1.6-3.2 2.9-6.4 2.9-7.1 0-.7.5-1.5 1.1-1.7.5-.2 1.1-1 1.3-1.8.1-.8 1.5-4.2 3-7.5 4.4-9.2 14.4-30.9 18.3-39.5 1.4-3 4.8-10.2 7.5-16 2.8-5.8 5.1-11.1 5.1-11.8 0-.6.4-1.2.8-1.2s1.3-1.6 1.9-3.5c.6-1.9 1.4-3.5 1.6-3.5.3 0 1.6 2.5 3 5.5zM1393.6 550.8c-.2.2-3.3.5-6.7.7-6.6.4-10.8.9-19.4 2.5-11.4 2.1-14 2.7-14 3 0 .1-.8.3-1.8.5s-5.1 1.4-9 2.6c-4 1.2-7.4 2.3-7.7 2.4-.3.1-2.2.9-4.4 1.8-2.1.9-4.1 1.7-4.3 1.7-1.8 0-27.6 14.1-29.3 15.9-.3.4-2.5 2-5 3.6-2.5 1.7-5 3.4-5.6 4-.7.5-3.6 3-6.5 5.5-6.9 5.9-13.5 12.5-19.5 19.7-2.7 3.2-5.5 6.4-6.1 7.1-2.1 2.2-14.3 20.8-16.3 24.9-1.1 2.1-2 3.1-2 2.3-.1-.8-.2-20.2-.3-43l-.2-41.5h-4.7c-2.7 0-4.8-.3-4.8-.7 0-.4-1-.4-2.2 0-1.3.4-3.6.6-5.3.5-3.6-.4-1.2-.4-22.8-.1-9.7.2-17.7 0-17.7-.4s-1-.4-2.2 0c-1.3.4-3.6.6-5.3.5-1.6-.2-3.4-.3-4-.3-.5 0-6.7.1-13.8.2l-12.7.1.3 2.6c.2 1.4 0 3.8-.4 5.3-.4 1.6-.5 2.8-.1 2.8.8 0 .7 468.3-.2 470.5-.3.8-.2 1.5.2 1.5.8 0 .7 28.2-.1 30.5-.4.8-.3 1.5.1 1.5.8 0 .7 28.2-.1 30.5-.4.8-.3 1.5.1 1.5s.6 6.6.6 14.7l-.2 14.8h98.8v-2.5c.1-1.4.2-69.1.4-150.5s.6-150.3.9-153c.3-2.8.9-8.4 1.2-12.5.4-4.1.8-8.4 1.1-9.5.2-1.1.6-4 .9-6.5.2-2.5.7-5.9 1-7.5.3-1.7.7-4.4 1-6 .3-1.7.7-4.1 1-5.5.3-1.4.8-3.8 1-5.3.3-1.5 1.2-5.6 2.1-9 .8-3.4 1.7-7.3 2-8.6.3-1.3 1.4-4.9 2.5-8 2.2-6 2.3-6.2 3.5-10.1 1.3-4.1 9.5-20.3 12-23.7 1.3-1.7 2.4-3.6 2.4-4.2 0-.5.8-1.5 1.8-2 .9-.6 1.3-1.1.7-1.1-.7 0-.7-.3 0-.8.6-.4 2.8-3 5-5.7 6.7-8.4 24.7-25.5 26.9-25.5.4 0 1.4-.6 2.1-1.3 3.1-2.7 6-4.5 16-9.6 1.6-.9 3.3-2.1 3.7-2.6.4-.6.8-.6.8-.1s.7.3 1.5-.4 1.5-1 1.5-.6 1 0 2.3-.8c2-1.3 15.5-6.1 20-7.2 15.1-3.5 25.8-5.1 39.9-5.8 3.7-.2 7.1-.7 7.7-1.1.6-.3 1.1-.3 1.1.2 0 .4 4.2.8 9.3.9 8.2 0 12.5.4 24.7 1.8 11.8 1.3 15.3 1.9 26.8 4.2 1.7.3 2.2 0 2.3-1.8.1-3.2.1-100 0-101.5-.1-1.1-1.6-1.4-12.6-2.7-2.2-.3-5.6-.7-7.5-1-1.9-.3-5.7-.8-8.5-1.1-2.7-.3-6.8-.7-9-1-4.6-.7-34.4-1.3-34.9-.7zM941.6 563.7c-.4.4-2.8.7-5.4.7l-4.7.1-.1 287.7c-.1 265.3 0 287.8 1.5 287.9 2.1.1 94.1.1 96.1 0 1.3-.1 1.5-32.7 1.5-287.6 0-158.1-.2-287.6-.5-287.7-.7-.2-6.3-.8-7.5-.8-.5 0-9 .1-18.8.2-9.7.2-17.7 0-17.7-.4s-1-.4-2.2 0c-1.3.4-3.6.6-5.3.5-1.6-.2-3.4-.3-4-.3-.5 0-7.6.1-15.6.2-8 0-15-.2-15.6-.5-.6-.4-1.3-.3-1.7 0z"/></svg>